<svg width="93" height="94" viewBox="0 0 93 94" fill="none" xmlns="http://www.w3.org/2000/svg">
<path id="Vector" d="M35.0491 14.4261L35.275 14.3576L35.3657 14.1396L41.0356 0.5H51.9644L57.6343 14.1396L57.7104 14.3225L57.8911 14.4037C58.4064 14.6352 58.9515 14.8962 59.5035 15.1605L59.5069 15.162C60.0554 15.4247 60.6107 15.6905 61.138 15.9274L61.3373 16.0169L61.5383 15.9315L75.0253 10.2038L82.9019 18.1651L77.2316 31.8056L77.1393 32.0276L77.2551 32.2383C77.8304 33.285 78.3926 34.4251 78.7259 35.4359L78.7968 35.651L79.0053 35.7395L92.5 41.4705V52.5295L79.0053 58.2605L78.8228 58.338L78.743 58.5194C78.514 59.0404 78.2557 59.5915 77.9943 60.1494L77.9929 60.1523C77.733 60.7069 77.4699 61.2682 77.2356 61.8012L77.1495 61.997L77.2316 62.1944L82.9019 75.8349L75.0253 83.7962L61.5383 78.0685L61.3123 77.9724L61.0981 78.0927C60.3204 78.5294 59.4822 78.8965 58.6536 79.2595C58.3978 79.3715 58.143 79.4831 57.8911 79.5963L57.7104 79.6775L57.6343 79.8604L51.9644 93.5H41.0356L35.3657 79.8604L35.2854 79.6672L35.0914 79.5888C34.5293 79.3615 33.9919 79.1045 33.4577 78.8418C33.3545 78.7911 33.2512 78.74 33.1477 78.6889C32.7202 78.4775 32.2905 78.2651 31.862 78.0726L31.6627 77.9831L31.4617 78.0685L17.9747 83.7962L10.0981 75.8349L15.7684 62.1944L15.8557 61.9845L15.7549 61.7808C15.1743 60.6071 14.7194 59.6869 14.2642 58.5367L14.1872 58.3422L13.9947 58.2605L0.5 52.5295V41.4705L13.9947 35.7395L14.1872 35.6578L14.2642 35.4633C14.7194 34.3131 15.1743 33.3929 15.7549 32.2192L15.8557 32.0155L15.7684 31.8056L10.0981 18.1651L17.9747 10.2038L31.4617 15.9315L31.6877 16.0276L31.9019 15.9073C32.9533 15.3169 33.9502 14.7593 35.0491 14.4261ZM64.394 46.8828C64.394 36.8835 56.4059 28.8017 46.5 28.8017C36.5941 28.8017 28.606 36.8835 28.606 46.8828C28.606 56.8821 36.5941 64.9638 46.5 64.9638C56.4059 64.9638 64.394 56.8821 64.394 46.8828Z" fill="#0D4497" fill-opacity="0.9" stroke="black"/>
</svg>
